<svg width="102" height="36" viewBox="0 0 102 36" fill="none" xmlns="http://www.w3.org/2000/svg">
<path d="M6.96 30.24C5.62 30.24 4.59 29.865 3.87 29.115C3.16 28.355 2.805 27.31 2.805 25.98V17.385H1.23C1.03 17.385 0.86 17.32 0.72 17.19C0.58 17.06 0.51 16.865 0.51 16.605V15.135L2.985 14.73L3.765 10.53C3.815 10.33 3.91 10.175 4.05 10.065C4.19 9.955 4.37 9.9 4.59 9.9H6.51V14.745H10.62V17.385H6.51V25.725C6.51 26.205 6.625 26.58 6.855 26.85C7.095 27.12 7.42 27.255 7.83 27.255C8.06 27.255 8.25 27.23 8.4 27.18C8.56 27.12 8.695 27.06 8.805 27C8.925 26.94 9.03 26.885 9.12 26.835C9.21 26.775 9.3 26.745 9.39 26.745C9.5 26.745 9.59 26.775 9.66 26.835C9.73 26.885 9.805 26.965 9.885 27.075L10.995 28.875C10.455 29.325 9.835 29.665 9.135 29.895C8.435 30.125 7.71 30.24 6.96 30.24ZM25.7899 20.535C25.7899 20.055 25.7199 19.605 25.5799 19.185C25.4499 18.755 25.2499 18.38 24.9799 18.06C24.7099 17.74 24.3649 17.49 23.9449 17.31C23.5349 17.12 23.0549 17.025 22.5049 17.025C21.4349 17.025 20.5899 17.33 19.9699 17.94C19.3599 18.55 18.9699 19.415 18.7999 20.535H25.7899ZM18.7249 22.77C18.7849 23.56 18.9249 24.245 19.1449 24.825C19.3649 25.395 19.6549 25.87 20.0149 26.25C20.3749 26.62 20.7999 26.9 21.2899 27.09C21.7899 27.27 22.3399 27.36 22.9399 27.36C23.5399 27.36 24.0549 27.29 24.4849 27.15C24.9249 27.01 25.3049 26.855 25.6249 26.685C25.9549 26.515 26.2399 26.36 26.4799 26.22C26.7299 26.08 26.9699 26.01 27.1999 26.01C27.5099 26.01 27.7399 26.125 27.8899 26.355L28.9549 27.705C28.5449 28.185 28.0849 28.59 27.5749 28.92C27.0649 29.24 26.5299 29.5 25.9699 29.7C25.4199 29.89 24.8549 30.025 24.2749 30.105C23.7049 30.185 23.1499 30.225 22.6099 30.225C21.5399 30.225 20.5449 30.05 19.6249 29.7C18.7049 29.34 17.9049 28.815 17.2249 28.125C16.5449 27.425 16.0099 26.565 15.6199 25.545C15.2299 24.515 15.0349 23.325 15.0349 21.975C15.0349 20.925 15.2049 19.94 15.5449 19.02C15.8849 18.09 16.3699 17.285 16.9999 16.605C17.6399 15.915 18.4149 15.37 19.3249 14.97C20.2449 14.57 21.2799 14.37 22.4299 14.37C23.3999 14.37 24.2949 14.525 25.1149 14.835C25.9349 15.145 26.6399 15.6 27.2299 16.2C27.8199 16.79 28.2799 17.52 28.6099 18.39C28.9499 19.25 29.1199 20.235 29.1199 21.345C29.1199 21.905 29.0599 22.285 28.9399 22.485C28.8199 22.675 28.5899 22.77 28.2499 22.77H18.7249ZM43.0303 23.43C41.9603 23.48 41.0603 23.575 40.3303 23.715C39.6003 23.845 39.0153 24.015 38.5753 24.225C38.1353 24.435 37.8203 24.68 37.6303 24.96C37.4403 25.24 37.3453 25.545 37.3453 25.875C37.3453 26.525 37.5353 26.99 37.9153 27.27C38.3053 27.55 38.8103 27.69 39.4303 27.69C40.1903 27.69 40.8453 27.555 41.3953 27.285C41.9553 27.005 42.5003 26.585 43.0303 26.025V23.43ZM34.5403 16.755C36.3103 15.135 38.4403 14.325 40.9303 14.325C41.8303 14.325 42.6353 14.475 43.3453 14.775C44.0553 15.065 44.6553 15.475 45.1453 16.005C45.6353 16.525 46.0053 17.15 46.2553 17.88C46.5153 18.61 46.6453 19.41 46.6453 20.28V30H44.9653C44.6153 30 44.3453 29.95 44.1553 29.85C43.9653 29.74 43.8153 29.525 43.7053 29.205L43.3753 28.095C42.9853 28.445 42.6053 28.755 42.2353 29.025C41.8653 29.285 41.4803 29.505 41.0803 29.685C40.6803 29.865 40.2503 30 39.7903 30.09C39.3403 30.19 38.8403 30.24 38.2903 30.24C37.6403 30.24 37.0403 30.155 36.4903 29.985C35.9403 29.805 35.4653 29.54 35.0653 29.19C34.6653 28.84 34.3553 28.405 34.1353 27.885C33.9153 27.365 33.8053 26.76 33.8053 26.07C33.8053 25.68 33.8703 25.295 34.0003 24.915C34.1303 24.525 34.3403 24.155 34.6303 23.805C34.9303 23.455 35.3153 23.125 35.7853 22.815C36.2553 22.505 36.8303 22.235 37.5103 22.005C38.2003 21.775 39.0003 21.59 39.9103 21.45C40.8203 21.3 41.8603 21.21 43.0303 21.18V20.28C43.0303 19.25 42.8103 18.49 42.3703 18C41.9303 17.5 41.2953 17.25 40.4653 17.25C39.8653 17.25 39.3653 17.32 38.9653 17.46C38.5753 17.6 38.2303 17.76 37.9303 17.94C37.6303 18.11 37.3553 18.265 37.1053 18.405C36.8653 18.545 36.5953 18.615 36.2953 18.615C36.0353 18.615 35.8153 18.55 35.6353 18.42C35.4553 18.28 35.3103 18.12 35.2003 17.94L34.5403 16.755ZM53.1347 30V14.61H55.3997C55.8797 14.61 56.1947 14.835 56.3447 15.285L56.5847 16.425C56.8547 16.125 57.1347 15.85 57.4247 15.6C57.7247 15.35 58.0397 15.135 58.3697 14.955C58.7097 14.775 59.0697 14.635 59.4497 14.535C59.8397 14.425 60.2647 14.37 60.7247 14.37C61.6947 14.37 62.4897 14.635 63.1097 15.165C63.7397 15.685 64.2097 16.38 64.5197 17.25C64.7597 16.74 65.0597 16.305 65.4197 15.945C65.7797 15.575 66.1747 15.275 66.6047 15.045C67.0347 14.815 67.4897 14.645 67.9697 14.535C68.4597 14.425 68.9497 14.37 69.4397 14.37C70.2897 14.37 71.0447 14.5 71.7047 14.76C72.3647 15.02 72.9197 15.4 73.3697 15.9C73.8197 16.4 74.1597 17.01 74.3897 17.73C74.6297 18.45 74.7497 19.275 74.7497 20.205V30H71.0447V20.205C71.0447 19.225 70.8297 18.49 70.3997 18C69.9697 17.5 69.3397 17.25 68.5097 17.25C68.1297 17.25 67.7747 17.315 67.4447 17.445C67.1247 17.575 66.8397 17.765 66.5897 18.015C66.3497 18.255 66.1597 18.56 66.0197 18.93C65.8797 19.3 65.8097 19.725 65.8097 20.205V30H62.0897V20.205C62.0897 19.175 61.8797 18.425 61.4597 17.955C61.0497 17.485 60.4447 17.25 59.6447 17.25C59.1047 17.25 58.5997 17.385 58.1297 17.655C57.6697 17.915 57.2397 18.275 56.8397 18.735V30H53.1347Z" fill="white"/>
<ellipse rx="3.18928" ry="7.01641" transform="matrix(-0.930682 -0.36583 -0.36583 0.930682 96.465 11.6968)" fill="#0BBEF2"/>
<ellipse rx="3.18928" ry="7.01641" transform="matrix(-0.930682 -0.36583 -0.36583 0.930682 87.535 28.281)" fill="#F5F7FA"/>
<ellipse cx="87.535" cy="11.6967" rx="3.18928" ry="7.01641" transform="rotate(158.541 87.535 11.6967)" fill="#F5F7FA"/>
<ellipse cx="96.465" cy="28.281" rx="3.18928" ry="7.01641" transform="rotate(158.541 96.465 28.281)" fill="#0BBEF2"/>
</svg>
